Coordinates
version=1
nRows=17
nColumns=36
inDegrees=yes

Units are S.I. units (second, meters, Newtons, ...)
If the header above contains a line with 'inDegrees', this indicates whether rotational values are in degrees (yes) or radians (no).

endheader
time	pelvis_tilt	pelvis_list	pelvis_rotation	pelvis_tx	pelvis_ty	pelvis_tz	hip_flexion_r	hip_adduction_r	hip_rotation_r	knee_angle_r	knee_angle_r_beta	ankle_angle_r	subtalar_angle_r	mtp_angle_r	hip_flexion_l	hip_adduction_l	hip_rotation_l	knee_angle_l	knee_angle_l_beta	ankle_angle_l	subtalar_angle_l	mtp_angle_l	lumbar_extension	lumbar_bending	lumbar_rotation	arm_flex_r	arm_add_r	arm_rot_r	elbow_flex_r	pro_sup_r	arm_flex_l	arm_add_l	arm_rot_l	elbow_flex_l	pro_sup_l
      0.00000000	      1.93207663	     -0.08293706	     10.14553035	      0.02644804	      1.23276719	      0.09273123	     -1.59152911	     -1.99622918	      2.45218925	      4.15163924	      0.07245977	      0.46097927	    -17.35832944	     -6.73053807	     -1.16868171	      0.36536500	      3.75290771	      5.99805251	      0.10468577	      7.97917853	     -8.09561633	     -6.73053807	    -13.89233265	     -1.09526188	     -2.97914389	      3.38138060	     -6.26005339	     17.21088372	     21.71980470	     74.28843340	      1.78228539	     -8.66333781	     19.09269277	     23.40469178	     67.68078440
      0.01666670	     -0.62406140	     -1.22630738	      9.63089541	      0.02886641	      1.22792640	      0.09293441	      0.68395606	     -1.33481885	      2.70398714	      3.74457662	      0.06535519	      2.64501961	    -12.55390477	     -6.78510681	      1.35033744	      0.03520688	      3.09866555	      5.41011803	      0.09442437	      8.45676803	     -6.95041863	     -6.78510681	    -10.02327613	     -0.43225822	     -2.26511686	      2.65216879	     -5.86877650	     14.91700498	     20.35921504	     74.98548089	      1.05368487	     -7.32757279	     16.26548526	     21.70916091	     67.87793014
      0.03333330	     -1.34577210	     -0.86823688	      8.60631480	      0.02941856	      1.22737201	      0.09430801	      1.00414647	     -1.93708542	      3.37568414	      2.77658814	      0.04846060	      3.26568282	    -11.43097498	     -7.13092228	      1.56446210	      0.49170876	      1.29682942	      4.71401003	      0.08227500	      8.92767163	     -5.61405551	     -7.13092228	     -9.16194245	     -1.33699860	     -1.43417260	      1.91819656	     -4.80745094	      7.15303001	     21.09657457	     83.88176454	      0.36686418	     -6.88947084	     10.48389822	     22.44921758	     75.21366406
      0.05000000	     -1.27764919	     -0.65507588	      7.86770212	      0.02925461	      1.22738825	      0.09538090	      0.95870896	     -2.20611405	      3.71680536	      2.45317926	      0.04281606	      3.61418002	    -10.47620893	     -7.15962657	      0.75035840	      0.71339366	      0.42352295	      3.57245380	      0.06235108	      8.64387230	     -5.22448304	     -7.15962657	     -9.17004020	     -1.80385527	     -0.89353676	      1.75938082	     -4.68925269	      6.71387037	     21.41870185	     82.92127805	      0.11597440	     -7.05941673	     10.04733465	     22.84683993	     74.47027103
      0.06666670	     -1.11086250	     -0.60499950	      7.32234776	      0.02924189	      1.22728838	      0.09606451	      0.79558445	     -2.27047320	      3.93057179	      2.17968727	      0.03804272	      3.77348008	     -9.97650660	     -7.22807546	      0.12480387	      0.79934938	     -0.38811305	      2.97084389	      0.05185101	      8.83871028	     -4.25328082	     -7.22807546	     -9.21735939	     -1.92706228	     -0.20890525	      1.57800991	     -4.72482043	      6.24530582	     21.58398065	     81.23723683	      0.20399137	     -6.90611036	      9.53625245	     22.66921754	     73.10947167
      0.08333330	     -1.04746331	     -0.54898168	      6.90793345	      0.02888361	      1.22709846	      0.09659834	      0.65908531	     -2.29278027	      4.20710651	      1.73040239	      0.03020122	      3.55233605	     -9.81702423	     -7.31150090	     -0.22664125	      0.87820937	     -0.88224594	      2.52037782	      0.04398889	      8.81129294	     -3.71592207	     -7.31150090	     -9.08658993	     -2.05584736	      0.34384436	      1.29465747	     -4.80607573	      6.41705623	     21.85301975	     79.16218801	      0.38184585	     -6.75450740	      9.52239851	     22.53345262	     71.27080799
      0.10000000	     -1.07176416	     -0.50345522	      6.55512237	      0.02875892	      1.22674415	      0.09703425	      0.64356119	     -2.32285646	      4.50583069	      1.40917849	      0.02459480	      3.28354150	     -9.87728149	     -7.38689194	     -0.39806066	      0.94893507	     -1.22821728	      2.23210442	      0.03895757	      8.82743222	     -3.38471994	     -7.38689194	     -8.90847349	     -2.12685190	      0.87533218	      1.29208706	     -5.02134018	      7.28361289	     21.90630895	     77.19894982	      0.58931696	     -6.66774731	      9.77949159	     22.42159312	     69.44491721
      0.11666670	     -0.96196744	     -0.43988057	      6.32258326	      0.02843529	      1.22654100	      0.09746548	      0.38111051	     -2.28924082	      4.63887740	      1.21202978	      0.02115391	      3.01124542	     -9.81025742	     -7.42947581	     -0.65160374	      0.98150100	     -1.54667082	      2.06037556	      0.03596034	      8.87561421	     -2.90777654	     -7.42947581	     -9.00045488	     -2.20215085	      1.24293997	      1.44518897	     -5.29441514	      8.19036383	     21.88252868	     81.05900951	      0.79127781	     -6.71868024	     10.38034195	     22.65909806	     70.43816453
      0.13333330	     -1.01334873	     -0.42264748	      6.01709110	      0.02834403	      1.22310427	      0.09783728	      0.39605671	     -2.23119522	      4.97076057	      1.15438100	      0.02014775	      2.88717868	     -9.61418233	     -7.42971226	     -0.70046508	      0.94046605	     -2.36805016	      2.04824101	      0.03574855	      9.20007197	     -2.07436739	     -7.42971226	     -8.87561292	     -2.29947962	      1.61345433	      1.45852004	     -5.18981497	      7.61696211	     21.70590550	     81.12228886	      0.91289476	     -6.61177195	      9.85278162	     22.59102712	     70.29824490
      0.15000000	     -1.06770346	     -0.44015637	      5.95449143	      0.02830280	      1.22654381	      0.09785580	      0.31153990	     -2.17971101	      5.07821796	      1.09648979	      0.01913736	      2.62688409	     -9.52264403	     -7.44870973	     -0.74715901	      0.89153063	     -2.10348153	      1.93657575	      0.03379962	      8.68362490	     -3.01027397	     -7.44870973	     -8.82381776	     -2.26245395	      1.59503249	      1.41728752	     -5.22447338	      7.74962609	     22.08374089	     79.58169563	      0.89772612	     -6.51534587	      9.53942025	     22.74011311	     68.96608532
      0.16666670	     -1.04966272	     -0.48161392	      5.85957015	      0.02834690	      1.22654025	      0.09790164	      0.19772179	     -2.10739586	      5.14654494	      1.04462762	      0.01823219	      2.56115006	     -9.20172042	     -7.47515401	     -0.85216289	      0.80647600	     -2.36137795	      1.88966266	      0.03298084	      8.70922940	     -2.98200363	     -7.47515401	     -8.86672457	     -2.20021825	      1.76038353	      1.34222625	     -5.14720508	      5.97124886	     22.38261041	     85.10163360	      0.89203212	     -6.41918130	      8.92792508	     22.97479831	     70.44348543
      0.18333330	     -1.14471742	     -0.53693848	      5.79572775	      0.02813593	      1.22668796	      0.09792231	      0.22425989	     -2.06210038	      5.28986428	      0.99018068	      0.01728191	      2.43132707	     -9.16046255	     -7.48159362	     -0.80703119	      0.74326075	     -2.57611436	      1.79548314	      0.03133709	      8.58057158	     -2.83471756	     -7.48159362	     -8.65856964	     -2.09808515	      1.89375192	      1.38143814	     -5.30409857	      6.52923513	     22.36934929	     82.79035960	      1.01747215	     -6.37544380	      8.95973504	     22.86978523	     69.22672425
      0.20000000	     -1.13127992	     -0.57618598	      5.82363411	      0.02811155	      1.22674089	      0.09795262	      0.15596632	     -2.02213476	      5.29807377	      0.93150736	      0.01625787	      2.30553133	     -9.03325184	     -7.48605715	     -0.87242513	      0.67351197	     -2.69179336	      1.70032873	      0.02967633	      8.56210291	     -2.84767709	     -7.48605715	     -8.71441221	     -2.02782268	      2.01353258	      1.38548828	     -5.42370173	      7.11687576	     22.45230411	     81.73953647	      1.03502491	     -6.34171185	      9.16224384	     22.94138549	     68.71601901
      0.21666670	     -1.17176848	     -0.64189579	      5.83919745	      0.02787972	      1.22666407	      0.09792322	      0.20032510	     -1.99210982	      5.13049155	      0.87167545	      0.01521361	      2.30994627	     -8.74847516	     -7.49546761	     -0.84804866	      0.62392835	     -2.96210414	      1.56882428	      0.02738115	      8.52343012	     -2.66762280	     -7.49546761	     -8.71736792	     -1.91118447	      2.13176369	      1.27503715	     -5.46706389	      5.78547910	     22.77126470	     86.19571653	      1.04706633	     -6.28419486	      8.58988812	     23.13549166	     70.83660771
      0.23333330	     -1.26927351	     -0.70635055	      5.84934060	      0.02800523	      1.22669289	      0.09774265	      0.35185257	     -1.98046782	      5.04173798	      0.83493688	      0.01457240	      2.22204489	     -8.72191874	     -7.49804118	     -0.76119536	      0.57737472	     -3.25817776	      1.47844493	      0.02580373	      8.44909302	     -2.61074780	     -7.49804118	     -8.52502493	     -1.82038024	      2.26256745	      1.39587930	     -5.83028938	      8.71314360	     22.52465414	     79.69592449	      1.25048231	     -6.31465516	      9.79498823	     22.79546576	     67.99714033
      0.25000000	     -1.27057781	     -0.72712333	      5.87104369	      0.02763084	      1.22683492	      0.09780542	      0.35071144	     -1.98943770	      4.92703634	      0.77437134	      0.01351533	      2.10441844	     -8.47198747	     -7.49920712	     -0.82192815	      0.56666819	     -3.55626043	      1.26971566	      0.02216072	      8.35578374	     -2.42932704	     -7.49920712	     -8.60679767	     -1.77920548	      2.31536279	      1.13169654	     -5.53879972	      5.23754526	     23.00295999	     86.51574148	      1.12840850	     -6.28480583	      8.66718655	     23.27558846	     71.17883290
      0.26666670	     -1.34088757	     -0.78106699	      6.04677178	      0.02769512	      1.22661072	      0.09765701	      0.42665674	     -1.94032828	      4.70434244	      0.76039621	      0.01327142	      2.03605905	     -8.49171317	     -7.49961940	     -0.79487572	      0.53157064	     -3.69079723	      1.08375217	      0.01891504	      8.29485495	     -2.24174601	     -7.49961940	     -8.51900749	     -1.69246715	      2.29025424	      0.96197591	     -5.73826124	      6.43362526	     23.33938868	     83.36759108	      0.93301542	     -6.30975597	      9.33457623	     23.36214134	     69.75931562
